<svg xmlns="http://www.w3.org/2000/svg" viewBox="0 0 66 90">
  <g fill="#888" fill-rule="nonzero">
    <path d="M65.9912 57.0044C65.9912 75.22735 51.2186 90 32.9956 90 14.77265 90 0 75.22736 0 57.0044h9C9 70.2568 19.7432 81 32.9956 81s23.9956-10.7432 23.9956-23.9956h9zM48 75.73134c5.48168-4.3977 8.9912-11.15248 8.9912-18.72696h9C65.9912 75.22735 51.2186 90 32.9956 90 14.77265 90 0 75.22736 0 57.0044h9c0 7.57852 3.5133 14.33647 9 18.734V60.49634h9v19.74854c1.91638.49295 3.92537.75512 5.9956.75512 2.0734 0 4.08538-.26297 6.0044-.75738V60.49634h9v15.235zM0 33h9v24.0044H0V33zm57 0h9v24.0044h-9V33z"/>
    <path d="M66 33c0 18.2254-14.7746 33-33 33S0 51.2254 0 33h9.0012c0 13.25417 10.74463 23.9988 23.9988 23.9988 13.25417 0 23.9988-10.74463 23.9988-23.9988H66zm-9.0012 0H66c0 18.2254-14.7746 33-33 33S0 51.2254 0 33h9.0012c0 13.25417 10.74463 23.9988 23.9988 23.9988 13.25417 0 23.9988-10.74463 23.9988-23.9988z"/>
    <path d="M33 56.9988c13.25417 0 23.9988-10.74463 23.9988-23.9988C56.9988 19.74583 46.25417 9.0012 33 9.0012 19.74583 9.0012 9.0012 19.74583 9.0012 33c0 13.25417 10.74463 23.9988 23.9988 23.9988zM33 66C14.7746 66 0 51.2254 0 33S14.7746 0 33 0s33 14.7746 33 33-14.7746 33-33 33z"/>
    <path d="M18 33c0-8.28427 6.71573-15 15-15s15 6.71573 15 15h-9c0-3.3137-2.6863-6-6-6s-6 2.6863-6 6h-9zm9 0h-9c0-8.28427 6.71573-15 15-15s15 6.71573 15 15h-9c0-3.3137-2.6863-6-6-6s-6 2.6863-6 6z"/>
  </g>
</svg>
